<svg width="225" height="386" viewBox="0 0 225 386" fill="none" xmlns="http://www.w3.org/2000/svg">
<path d="M212.024 168.8C210.484 165.44 208.524 162.1 206.064 158.81C199.144 149.51 188.324 140.62 172.004 133.05C107.114 105.59 59.2945 134.44 40.5145 148.47C37.0045 151.09 34.5045 153.2 33.1045 154.32C35.4645 152.59 38.2345 150.96 41.3545 149.45C74.7845 133.23 147.984 130.84 182.864 172.19C187.304 177.45 191.114 183.42 194.154 190.15C195.184 192.45 196.134 194.84 196.974 197.31C199.234 203.91 200.794 211.17 201.554 219.12C201.964 223.37 202.144 227.81 202.064 232.46C201.754 235.67 227.134 201.73 212.024 168.8Z" fill="#D0D2D3"/>
<path d="M18.0245 346.29C17.5345 346.06 16.9745 345.85 16.3545 345.64C15.7345 345.43 15.0445 345.32 14.2845 345.3C13.6345 345.3 13.1045 345.45 12.6945 345.75C12.2545 346.05 12.0245 346.53 12.0245 347.2C12.0245 347.53 12.1345 347.83 12.3545 348.1C12.5545 348.38 12.8145 348.65 13.1445 348.91C13.8545 349.39 14.6745 349.87 15.5945 350.36C16.5145 350.85 17.3345 351.46 18.0345 352.17C18.7545 352.9 19.1245 353.84 19.1445 354.99C19.1245 356.42 18.6145 357.51 17.6245 358.25C16.6345 359 15.3045 359.37 13.6345 359.37C12.6645 359.35 11.8045 359.25 11.0445 359.07C10.2745 358.89 9.76449 358.77 9.50449 358.71V356C9.97449 356.3 10.5545 356.61 11.2645 356.94C11.9945 357.3 12.8145 357.49 13.7445 357.51C14.7245 357.5 15.4145 357.26 15.8245 356.79C16.1845 356.36 16.3645 355.88 16.3645 355.36C16.3545 354.52 15.9845 353.84 15.2645 353.31C14.5545 352.77 13.7445 352.25 12.8145 351.76C11.8845 351.27 11.0645 350.69 10.3545 350.02C9.62449 349.36 9.2445 348.49 9.2345 347.42C9.2445 346.04 9.75449 345.02 10.7445 344.38C11.7145 343.75 12.9145 343.44 14.3645 343.44C15.2145 343.44 15.9745 343.49 16.6345 343.6C17.2845 343.7 17.7445 343.79 18.0245 343.86V346.29V346.29Z" fill="#808184"/>
<path d="M25.5245 359.37C22.5045 359.3 20.9845 357.45 20.9745 353.8C20.9845 350.15 22.5045 348.29 25.5245 348.23C28.5445 348.29 30.0645 350.14 30.0745 353.8C30.0545 357.45 28.5445 359.3 25.5245 359.37ZM23.5245 353.81C23.5245 354.3 23.5545 354.77 23.6045 355.22C23.6445 355.66 23.7345 356.07 23.8645 356.44C24.0145 356.8 24.2245 357.08 24.5045 357.29C24.7645 357.51 25.1045 357.63 25.5245 357.63C25.9545 357.63 26.3145 357.52 26.5845 357.29C26.8445 357.08 27.0445 356.8 27.1745 356.44C27.3145 356.07 27.4145 355.66 27.4745 355.22C27.5045 354.77 27.5145 354.3 27.5145 353.81C27.5245 352.76 27.4145 351.87 27.1745 351.13C27.0445 350.78 26.8445 350.49 26.5845 350.28C26.3045 350.08 25.9545 349.99 25.5245 349.99C25.1045 349.99 24.7645 350.09 24.5045 350.28C24.2245 350.49 24.0145 350.77 23.8645 351.13C23.6245 351.87 23.5045 352.76 23.5245 353.81Z" fill="#808184"/>
<path d="M40.6445 358.87C39.7345 359.18 38.7245 359.35 37.6245 359.37C36.0545 359.37 34.7445 358.89 33.6945 357.93C32.6445 356.99 32.1145 355.46 32.0945 353.33C32.0745 351.9 32.4545 350.7 33.2145 349.73C33.9745 348.76 35.1745 348.26 36.8145 348.23C37.5945 348.23 38.2545 348.33 38.7745 348.54C39.2645 348.75 39.6545 349.04 39.9545 349.42C40.1145 349.6 40.2445 349.79 40.3445 349.98C40.4445 350.21 40.5245 350.44 40.5845 350.68C40.6845 351.15 40.7345 351.64 40.7345 352.13H38.1845C38.1845 351.59 38.0945 351.1 37.9145 350.66C37.6945 350.22 37.2645 350 36.6345 349.98C35.9845 349.99 35.4945 350.27 35.1645 350.81C34.8245 351.36 34.6545 352.06 34.6545 352.89C34.6545 353.42 34.7345 353.96 34.8945 354.51C35.0545 355.06 35.2945 355.58 35.6145 356.05C35.9645 356.5 36.3945 356.87 36.9245 357.15C37.4645 357.46 38.1145 357.62 38.9045 357.62C39.5845 357.62 40.1645 357.53 40.6445 357.35V358.87Z" fill="#808184"/>
<path d="M42.8145 343.7H45.2145V346.14H42.8145V343.7ZM42.8145 348.48H45.2145V359.12H42.8145V348.48Z" fill="#808184"/>
<path d="M55.9344 358.94C55.0944 359.22 54.1344 359.37 53.0444 359.37C49.6144 359.32 47.8745 357.27 47.8545 353.24C47.8445 351.73 48.1845 350.51 48.8945 349.61C49.6045 348.71 50.7345 348.26 52.2845 348.24C54.8945 348.31 56.1945 349.75 56.1945 352.54V353.14H50.0845C50.0845 353.51 50.1544 353.95 50.2944 354.44C50.3744 354.68 50.4645 354.93 50.5645 355.18C50.6745 355.41 50.8045 355.66 50.9545 355.91C51.2545 356.39 51.6545 356.79 52.1445 357.1C52.6545 357.44 53.2645 357.62 53.9745 357.62C54.7945 357.59 55.4545 357.46 55.9445 357.21V358.94H55.9344ZM53.9245 351.65C53.9345 351.28 53.8345 350.88 53.6045 350.45C53.4645 350.26 53.2845 350.1 53.0545 349.98C52.8145 349.86 52.4945 349.8 52.0945 349.8C51.3945 349.82 50.8945 350.04 50.5745 350.48C50.2745 350.9 50.1145 351.29 50.0845 351.64H53.9245V351.65Z" fill="#808184"/>
<path d="M64.3545 357.66H64.3045C64.1945 357.99 63.9045 358.34 63.4345 358.72C62.9645 359.12 62.3945 359.33 61.7345 359.37C60.3845 359.33 59.4545 358.77 58.9445 357.69C58.4345 356.61 58.1945 355.32 58.2045 353.8C58.2045 352.2 58.4945 350.88 59.0745 349.84C59.6245 348.78 60.5145 348.25 61.7445 348.23C62.1345 348.23 62.4745 348.27 62.7845 348.36C63.0745 348.48 63.3145 348.62 63.5045 348.79C63.9045 349.13 64.1745 349.45 64.3245 349.75H64.3745V343.69H66.7745V359.11H64.3745V357.66H64.3545ZM60.7545 353.81C60.7545 354.21 60.7845 354.63 60.8345 355.06C60.8745 355.5 60.9545 355.9 61.0645 356.25C61.1945 356.61 61.3745 356.89 61.6045 357.1C61.8545 357.33 62.1545 357.45 62.5145 357.45C62.8645 357.45 63.1545 357.33 63.3845 357.1C63.6145 356.89 63.8045 356.6 63.9545 356.25C64.2145 355.51 64.3445 354.7 64.3445 353.81C64.3445 352.79 64.2145 351.93 63.9545 351.23C63.6745 350.53 63.1945 350.17 62.5145 350.16C62.1245 350.16 61.8245 350.26 61.6045 350.47C61.3745 350.68 61.1945 350.96 61.0645 351.3C60.9545 351.64 60.8745 352.03 60.8345 352.47C60.7845 352.89 60.7545 353.34 60.7545 353.81Z" fill="#808184"/>
<path d="M75.2545 357.89H75.2145C75.0645 358.23 74.7945 358.56 74.3845 358.87C74.1645 359.01 73.9045 359.12 73.6045 359.21C73.3045 359.3 72.9445 359.35 72.5245 359.37C71.6445 359.35 70.9145 359.09 70.3545 358.61C69.7745 358.1 69.4845 357.43 69.4845 356.58C69.4945 355.7 69.7345 355.01 70.2045 354.5C70.6545 354.01 71.1945 353.66 71.8445 353.45C72.5045 353.24 73.1445 353.1 73.7645 353.05C74.4045 352.99 74.8945 352.97 75.2545 352.99V351.94C75.2545 351.39 75.1645 350.93 74.9945 350.55C74.7945 350.19 74.4045 350 73.8145 349.98C73.1745 349.99 72.7545 350.18 72.5345 350.53C72.3145 350.87 72.2145 351.24 72.2245 351.62H69.8945C69.8945 349.42 71.2045 348.29 73.8145 348.23C76.3245 348.25 77.5645 349.35 77.5545 351.54V359.11H75.2645V357.89H75.2545ZM71.8145 356.35C71.8145 357.2 72.2445 357.63 73.0945 357.63C73.4845 357.63 73.8245 357.52 74.1145 357.31C74.3745 357.12 74.5945 356.87 74.7745 356.55C74.9445 356.22 75.0745 355.88 75.1645 355.52C75.2245 355.15 75.2545 354.78 75.2545 354.43C74.4245 354.43 73.6645 354.56 72.9745 354.83C72.6445 354.98 72.3745 355.18 72.1645 355.43C71.9245 355.68 71.8145 355.99 71.8145 356.35Z" fill="#808184"/>
<path d="M86.2845 357.66H86.2345C86.1245 357.99 85.8345 358.34 85.3645 358.72C84.8945 359.12 84.3245 359.33 83.6645 359.37C82.3145 359.33 81.3845 358.77 80.8745 357.69C80.3645 356.61 80.1145 355.32 80.1345 353.8C80.1345 352.2 80.4245 350.88 81.0045 349.84C81.5545 348.78 82.4445 348.25 83.6645 348.23C84.0545 348.23 84.3945 348.27 84.7045 348.36C84.9945 348.48 85.2345 348.62 85.4245 348.79C85.8245 349.13 86.0945 349.45 86.2345 349.75H86.2845V343.69H88.6845V359.11H86.2845V357.66ZM82.6845 353.81C82.6845 354.21 82.7145 354.63 82.7645 355.06C82.8045 355.5 82.8845 355.9 82.9945 356.25C83.1245 356.61 83.3045 356.89 83.5345 357.1C83.7845 357.33 84.0845 357.45 84.4445 357.45C84.7945 357.45 85.0845 357.33 85.3145 357.1C85.5445 356.89 85.7345 356.6 85.8845 356.25C86.1445 355.51 86.2745 354.7 86.2745 353.81C86.2745 352.79 86.1445 351.93 85.8845 351.23C85.6045 350.53 85.1245 350.17 84.4445 350.16C84.0545 350.16 83.7545 350.26 83.5345 350.47C83.3045 350.68 83.1245 350.96 82.9945 351.3C82.8845 351.64 82.8045 352.03 82.7645 352.47C82.7145 352.89 82.6845 353.34 82.6845 353.81Z" fill="#808184"/>
<path d="M99.3945 358.94C98.5545 359.22 97.5945 359.37 96.5045 359.37C93.0645 359.32 91.3345 357.27 91.3045 353.24C91.2945 351.73 91.6345 350.51 92.3445 349.61C93.0545 348.71 94.1845 348.26 95.7345 348.24C98.3445 348.31 99.6445 349.75 99.6445 352.54V353.14H93.5345C93.5345 353.51 93.6045 353.95 93.7445 354.44C93.8245 354.68 93.9145 354.93 94.0145 355.18C94.1245 355.41 94.2545 355.66 94.4045 355.91C94.7045 356.39 95.1045 356.79 95.5945 357.1C96.1045 357.44 96.7145 357.62 97.4245 357.62C98.2445 357.59 98.9045 357.46 99.3945 357.21V358.94ZM97.3745 351.65C97.3845 351.28 97.2845 350.88 97.0545 350.45C96.9145 350.26 96.7345 350.1 96.5045 349.98C96.2645 349.86 95.9445 349.8 95.5445 349.8C94.8445 349.82 94.3445 350.04 94.0245 350.48C93.7245 350.9 93.5645 351.29 93.5345 351.64H97.3745V351.65Z" fill="#808184"/>
<path d="M108.974 343.7H113.564C113.984 343.7 114.434 343.74 114.924 343.81C115.414 343.88 115.874 344.05 116.304 344.32C116.734 344.56 117.094 344.93 117.384 345.42C117.654 345.91 117.794 346.54 117.794 347.32C117.794 347.93 117.714 348.44 117.554 348.86C117.384 349.28 117.164 349.62 116.894 349.89C116.334 350.4 115.804 350.73 115.314 350.87V350.91C115.654 350.95 116.014 351.03 116.394 351.16C116.774 351.3 117.114 351.53 117.434 351.83C117.764 352.11 118.044 352.5 118.264 353C118.474 353.47 118.574 354.09 118.574 354.86C118.564 355.8 118.404 356.55 118.124 357.1C117.824 357.68 117.414 358.11 116.904 358.39C116.414 358.67 115.874 358.87 115.294 358.98C114.704 359.08 114.134 359.13 113.584 359.13H108.974V343.7ZM111.504 350.03H112.514C112.914 350.03 113.284 350 113.624 349.93C113.954 349.87 114.234 349.77 114.474 349.62C114.714 349.47 114.904 349.24 115.034 348.92C115.164 348.64 115.224 348.25 115.224 347.76C115.224 347.27 115.164 346.87 115.054 346.57C114.924 346.29 114.734 346.07 114.494 345.93C114.264 345.76 113.984 345.65 113.644 345.59C113.464 345.56 113.294 345.55 113.124 345.55C112.934 345.55 112.724 345.55 112.514 345.55H111.504V350.03ZM111.504 357.26H112.524C112.954 357.26 113.374 357.22 113.794 357.15C114.194 357.09 114.574 356.97 114.914 356.79C115.244 356.6 115.514 356.32 115.714 355.96C115.904 355.62 116.004 355.17 116.004 354.62C115.994 353.61 115.684 352.9 115.084 352.48C114.464 352.07 113.614 351.87 112.534 351.87H111.514V357.26H111.504Z" fill="#808184"/>
<path d="M121.294 348.48H123.694V350.45H123.744C123.884 350.19 124.054 349.92 124.244 349.65C124.414 349.4 124.614 349.16 124.844 348.95C125.324 348.49 126.064 348.26 127.074 348.24V350.84C124.764 350.81 123.644 352.02 123.694 354.46V359.13H121.294V348.48Z" fill="#808184"/>
<path d="M134.444 357.89H134.404C134.254 358.23 133.984 358.56 133.574 358.87C133.354 359.01 133.094 359.12 132.794 359.21C132.494 359.3 132.134 359.35 131.714 359.37C130.834 359.35 130.104 359.09 129.544 358.61C128.964 358.1 128.674 357.43 128.674 356.58C128.684 355.7 128.924 355.01 129.394 354.5C129.844 354.01 130.384 353.66 131.034 353.45C131.694 353.24 132.334 353.1 132.954 353.05C133.594 352.99 134.084 352.97 134.444 352.99V351.94C134.444 351.39 134.354 350.93 134.184 350.55C133.984 350.19 133.594 350 132.994 349.98C132.364 349.99 131.934 350.18 131.714 350.53C131.494 350.87 131.394 351.24 131.404 351.62H129.074C129.074 349.42 130.384 348.29 132.994 348.23C135.504 348.25 136.744 349.35 136.734 351.54V359.11H134.444V357.89V357.89ZM131.004 356.35C131.004 357.2 131.434 357.63 132.284 357.63C132.674 357.63 133.014 357.52 133.304 357.31C133.564 357.12 133.784 356.87 133.964 356.55C134.134 356.22 134.264 355.88 134.354 355.52C134.414 355.15 134.434 354.78 134.434 354.43C133.604 354.43 132.844 354.56 132.154 354.83C131.824 354.98 131.554 355.18 131.344 355.43C131.124 355.68 131.004 355.99 131.004 356.35Z" fill="#808184"/>
<path d="M145.285 350.74C145.145 350.65 144.864 350.51 144.454 350.31C144.034 350.14 143.544 350.04 142.984 350.03C142.594 350.03 142.244 350.11 141.924 350.27C141.554 350.45 141.374 350.7 141.374 351.01C141.374 351.16 141.454 351.31 141.594 351.48C141.724 351.65 141.895 351.82 142.115 351.97C142.555 352.27 143.065 352.6 143.645 352.98C144.235 353.34 144.765 353.77 145.215 354.28C145.655 354.78 145.884 355.41 145.904 356.18C145.894 357.26 145.535 358.06 144.825 358.57C144.115 359.11 143.184 359.38 142.014 359.38C141.324 359.36 140.755 359.3 140.325 359.22C139.885 359.12 139.535 359.03 139.285 358.96V356.82C139.455 356.88 139.645 356.94 139.865 357.02C140.065 357.12 140.274 357.19 140.484 357.25C140.944 357.39 141.424 357.47 141.904 357.47C142.254 357.47 142.625 357.41 143.025 357.29C143.445 357.17 143.664 356.91 143.684 356.5C143.664 356.19 143.435 355.87 143.005 355.54C142.575 355.23 142.065 354.89 141.475 354.51C141.215 354.31 140.944 354.11 140.674 353.89C140.414 353.66 140.174 353.42 139.954 353.17C139.494 352.67 139.265 352.07 139.245 351.38C139.245 350.37 139.584 349.59 140.264 349.05C140.924 348.52 141.824 348.25 142.954 348.25C143.474 348.27 143.934 348.31 144.344 348.38C144.734 348.48 145.054 348.57 145.294 348.65V350.74H145.285Z" fill="#808184"/>
<path d="M148.344 343.7H150.744V346.14H148.344V343.7ZM148.344 348.48H150.744V359.12H148.344V348.48Z" fill="#808184"/>
<path d="M154.125 343.7H156.525V359.12H154.125V343.7Z" fill="#808184"/>
<path d="M167.255 358.94C166.415 359.22 165.455 359.37 164.365 359.37C160.925 359.32 159.195 357.27 159.165 353.24C159.155 351.73 159.495 350.51 160.205 349.61C160.915 348.71 162.045 348.26 163.595 348.24C166.205 348.31 167.505 349.75 167.505 352.54V353.14H161.395C161.395 353.51 161.465 353.95 161.605 354.44C161.685 354.68 161.775 354.93 161.875 355.18C161.985 355.41 162.115 355.66 162.265 355.91C162.565 356.39 162.965 356.79 163.455 357.1C163.965 357.44 164.575 357.62 165.285 357.62C166.105 357.59 166.765 357.46 167.255 357.21V358.94ZM165.245 351.65C165.265 351.28 165.155 350.88 164.925 350.45C164.785 350.26 164.605 350.1 164.375 349.98C164.135 349.86 163.815 349.8 163.415 349.8C162.715 349.82 162.215 350.04 161.895 350.48C161.595 350.9 161.435 351.29 161.405 351.64H165.245V351.65Z" fill="#808184"/>
<path d="M170.265 343.7H172.665V346.14H170.265V343.7ZM170.265 348.48H172.665V359.12H170.265V348.48Z" fill="#808184"/>
<path d="M175.895 348.48H178.295V350.45H178.345C178.485 350.19 178.655 349.92 178.845 349.65C179.015 349.4 179.215 349.16 179.445 348.95C179.925 348.49 180.665 348.26 181.675 348.24V350.84C179.365 350.81 178.245 352.02 178.295 354.46V359.13H175.895V348.48V348.48Z" fill="#808184"/>
<path d="M189.044 357.89H189.004C188.854 358.23 188.584 358.56 188.174 358.87C187.954 359.01 187.694 359.12 187.394 359.21C187.094 359.3 186.734 359.35 186.314 359.37C185.434 359.35 184.704 359.09 184.144 358.61C183.564 358.1 183.274 357.43 183.274 356.58C183.284 355.7 183.524 355.01 183.994 354.5C184.444 354.01 184.984 353.66 185.634 353.45C186.294 353.24 186.934 353.1 187.554 353.05C188.194 352.99 188.684 352.97 189.044 352.99V351.94C189.044 351.39 188.954 350.93 188.784 350.55C188.584 350.19 188.194 350 187.594 349.98C186.954 349.99 186.534 350.18 186.314 350.53C186.094 350.87 185.994 351.24 186.004 351.62H183.674C183.674 349.42 184.984 348.29 187.594 348.23C190.104 348.25 191.344 349.35 191.334 351.54V359.11H189.044V357.89V357.89ZM185.604 356.35C185.604 357.2 186.034 357.63 186.884 357.63C187.274 357.63 187.614 357.52 187.904 357.31C188.164 357.12 188.384 356.87 188.564 356.55C188.734 356.22 188.864 355.88 188.954 355.52C189.014 355.15 189.044 354.78 189.044 354.43C188.214 354.43 187.454 354.56 186.764 354.83C186.434 354.98 186.164 355.18 185.954 355.43C185.724 355.68 185.604 355.99 185.604 356.35Z" fill="#808184"/>
<path d="M36.6145 378.66H36.5645C36.4545 378.99 36.1645 379.34 35.6945 379.72C35.2245 380.12 34.6545 380.34 33.9945 380.37C32.6445 380.33 31.7145 379.77 31.2045 378.69C30.6945 377.61 30.4545 376.32 30.4645 374.81C30.4645 373.21 30.7545 371.89 31.3345 370.85C31.8845 369.8 32.7745 369.26 33.9945 369.25C34.3845 369.25 34.7245 369.29 35.0345 369.38C35.3245 369.5 35.5645 369.64 35.7545 369.81C36.1545 370.15 36.4245 370.47 36.5645 370.77H36.6145V364.71H39.0145V380.13H36.6145V378.66ZM33.0145 374.81C33.0145 375.21 33.0445 375.63 33.0945 376.06C33.1345 376.5 33.2145 376.89 33.3245 377.25C33.4545 377.61 33.6445 377.89 33.8645 378.1C34.1145 378.33 34.4145 378.45 34.7745 378.45C35.1245 378.45 35.4145 378.33 35.6445 378.1C35.8745 377.89 36.0645 377.61 36.2145 377.25C36.4745 376.51 36.6045 375.7 36.6045 374.81C36.6045 373.79 36.4745 372.93 36.2145 372.23C35.9345 371.53 35.4545 371.17 34.7745 371.16C34.3845 371.16 34.0845 371.26 33.8645 371.47C33.6345 371.68 33.4545 371.96 33.3245 372.3C33.2145 372.64 33.1345 373.03 33.0945 373.47C33.0445 373.9 33.0145 374.35 33.0145 374.81Z" fill="#808184"/>
<path d="M49.7245 379.95C48.8845 380.23 47.9245 380.38 46.8345 380.38C43.3945 380.33 41.6645 378.28 41.6345 374.24C41.6245 372.73 41.9645 371.52 42.6745 370.6C43.3845 369.71 44.5145 369.25 46.0645 369.24C48.6745 369.31 49.9745 370.75 49.9745 373.54V374.14H43.8645C43.8645 374.51 43.9345 374.95 44.0745 375.44C44.1545 375.68 44.2445 375.93 44.3445 376.18C44.4545 376.41 44.5845 376.66 44.7345 376.91C45.0345 377.39 45.4345 377.79 45.9245 378.1C46.4345 378.44 47.0445 378.61 47.7545 378.61C48.5745 378.58 49.2345 378.45 49.7245 378.21V379.95ZM47.7045 372.66C47.7145 372.29 47.6145 371.89 47.3845 371.46C47.2445 371.27 47.0645 371.11 46.8345 370.99C46.5945 370.87 46.2745 370.81 45.8745 370.81C45.1745 370.82 44.6745 371.05 44.3545 371.49C44.0545 371.91 43.8945 372.29 43.8645 372.65H47.7045V372.66Z" fill="#808184"/>
<path d="M69.0645 379.48C68.8845 379.55 68.6745 379.63 68.4245 379.72C68.1345 379.84 67.8145 379.95 67.4645 380.03C66.7445 380.23 65.9245 380.35 65.0045 380.37C62.8545 380.35 61.2745 379.61 60.2645 378.15C59.2345 376.7 58.7245 374.76 58.7245 372.33C58.7145 370.01 59.1645 368.12 60.0945 366.68C61.0045 365.22 62.5145 364.48 64.6245 364.44C66.3545 364.46 67.6345 364.9 68.4445 365.76C69.2445 366.63 69.6545 367.68 69.6545 368.92H66.8445C66.8445 368.61 66.8345 368.29 66.8045 367.98C66.7445 367.67 66.6345 367.38 66.4745 367.13C66.3345 366.87 66.1145 366.67 65.8345 366.51C65.5345 366.37 65.1345 366.3 64.6445 366.3C63.9945 366.31 63.4745 366.5 63.0645 366.85C62.6545 367.19 62.3445 367.64 62.1345 368.2C61.9145 368.77 61.7645 369.37 61.6845 370.01C61.5945 370.67 61.5445 371.31 61.5445 371.93C61.5345 373.8 61.8345 375.32 62.4545 376.5C63.0645 377.7 64.1145 378.3 65.6145 378.31C66.4845 378.3 67.2245 378.13 67.8445 377.82C68.4645 377.54 68.8845 377.32 69.1045 377.17V379.48H69.0645Z" fill="#808184"/>
<path d="M75.5845 380.38C72.5645 380.31 71.0445 378.46 71.0345 374.81C71.0445 371.16 72.5645 369.3 75.5845 369.24C78.6045 369.3 80.1246 371.15 80.1346 374.81C80.1246 378.45 78.6045 380.31 75.5845 380.38ZM73.5845 374.81C73.5845 375.3 73.6146 375.77 73.6646 376.22C73.7046 376.66 73.7945 377.07 73.9245 377.44C74.0745 377.8 74.2845 378.08 74.5645 378.29C74.8245 378.52 75.1645 378.63 75.5845 378.63C76.0145 378.63 76.3745 378.52 76.6445 378.29C76.9045 378.08 77.1045 377.8 77.2345 377.44C77.3745 377.07 77.4745 376.66 77.5345 376.22C77.5645 375.77 77.5746 375.3 77.5746 374.81C77.5846 373.76 77.4745 372.87 77.2345 372.13C77.1045 371.77 76.9045 371.49 76.6445 371.28C76.3645 371.09 76.0145 370.99 75.5845 370.99C75.1645 370.99 74.8245 371.09 74.5645 371.28C74.2845 371.49 74.0745 371.77 73.9245 372.13C73.6845 372.87 73.5745 373.77 73.5845 374.81Z" fill="#808184"/>
<path d="M82.6645 369.48H85.0645V371.12H85.1045C85.1945 370.94 85.3045 370.74 85.4345 370.51C85.5745 370.31 85.7545 370.11 85.9745 369.91C86.1945 369.7 86.4645 369.53 86.7745 369.42C87.0845 369.3 87.4645 369.25 87.8945 369.25C88.5645 369.25 89.1345 369.41 89.6045 369.74C90.0845 370.1 90.4045 370.64 90.5645 371.37H90.6145C90.7745 370.93 91.1045 370.46 91.5945 369.98C92.0845 369.51 92.7545 369.26 93.6045 369.25C94.4145 369.25 95.0945 369.52 95.6545 370.07C96.1945 370.64 96.4645 371.53 96.4845 372.75V380.13H94.0845V374.04C94.0845 372.98 94.0145 372.29 93.8745 371.96C93.7145 371.68 93.4045 371.54 92.9545 371.55C92.5845 371.55 92.2645 371.67 91.9945 371.9C91.7245 372.15 91.5045 372.49 91.3145 372.89C90.9445 373.72 90.7645 374.59 90.7645 375.5V380.11H88.3645V374.02C88.3645 372.96 88.2945 372.27 88.1545 371.94C87.9945 371.66 87.6845 371.52 87.2345 371.53C86.8645 371.53 86.5445 371.65 86.2745 371.88C85.9945 372.13 85.7745 372.47 85.5945 372.87C85.2245 373.7 85.0445 374.57 85.0445 375.48V380.09H82.6445V369.48H82.6645Z" fill="#808184"/>
<path d="M99.7445 369.48H102.145V370.95H102.195C102.335 370.61 102.635 370.24 103.105 369.86C103.545 369.46 104.095 369.25 104.745 369.24C106.105 369.27 107.045 369.82 107.555 370.89C108.065 371.97 108.304 373.27 108.294 374.81C108.294 376.39 108.015 377.7 107.465 378.74C106.885 379.8 105.974 380.34 104.734 380.38C104.374 380.38 104.054 380.32 103.764 380.19C103.484 380.1 103.245 379.98 103.025 379.81C102.625 379.47 102.344 379.15 102.184 378.86H102.135V384.91H99.7345V369.48H99.7445ZM102.145 374.81C102.135 375.81 102.265 376.66 102.535 377.36C102.805 378.07 103.275 378.44 103.945 378.45C104.365 378.45 104.694 378.34 104.934 378.12C105.164 377.91 105.345 377.63 105.475 377.29C105.605 376.93 105.674 376.54 105.704 376.1C105.734 375.67 105.745 375.24 105.745 374.81C105.745 374.37 105.734 373.94 105.704 373.51C105.664 373.07 105.574 372.68 105.454 372.34C105.314 371.98 105.145 371.69 104.915 371.46C104.665 371.26 104.344 371.15 103.954 371.15C103.634 371.15 103.375 371.25 103.165 371.46C102.935 371.69 102.735 371.98 102.575 372.34C102.275 373.09 102.145 373.92 102.145 374.81Z" fill="#808184"/>
<path d="M116.854 378.15H116.814C116.754 378.34 116.644 378.56 116.484 378.81C116.344 379.06 116.154 379.31 115.904 379.55C115.654 379.77 115.364 379.96 115.014 380.13C114.654 380.3 114.234 380.38 113.754 380.38C112.974 380.38 112.334 380.1 111.804 379.53C111.254 378.95 110.974 378.06 110.954 376.87V369.49H113.354V375.58C113.354 376.63 113.434 377.31 113.584 377.62C113.734 377.93 114.004 378.08 114.414 378.07C114.814 378.07 115.174 377.93 115.474 377.67C115.774 377.41 116.034 377.09 116.234 376.71C116.634 375.89 116.844 375.02 116.844 374.11V369.5H119.244V380.14H116.844V378.15H116.854Z" fill="#808184"/>
<path d="M128.675 380.19C128.025 380.31 127.365 380.38 126.695 380.38C126.035 380.38 125.495 380.3 125.075 380.13C124.655 379.98 124.325 379.78 124.105 379.51C123.905 379.23 123.755 378.91 123.675 378.55C123.585 378.21 123.535 377.84 123.535 377.45V371.22H121.525V369.5H123.535V366.98L125.935 365.48V369.5H128.985V371.22H125.935V376.25C125.925 376.9 126.015 377.45 126.215 377.9C126.325 378.12 126.485 378.3 126.695 378.41C126.915 378.56 127.205 378.64 127.565 378.64C127.965 378.64 128.335 378.58 128.675 378.45V380.19V380.19Z" fill="#808184"/>
<path d="M136.104 378.89H136.064C135.914 379.23 135.644 379.56 135.234 379.87C135.014 380.01 134.754 380.12 134.454 380.21C134.154 380.3 133.794 380.35 133.374 380.38C132.494 380.36 131.764 380.1 131.204 379.62C130.624 379.11 130.334 378.44 130.334 377.59C130.344 376.71 130.584 376.02 131.054 375.51C131.504 375.02 132.044 374.68 132.694 374.46C133.354 374.25 133.994 374.12 134.614 374.06C135.254 374 135.744 373.98 136.114 373.99V372.94C136.114 372.39 136.024 371.92 135.854 371.55C135.654 371.19 135.264 371 134.664 370.98C134.034 370.99 133.604 371.18 133.384 371.53C133.164 371.87 133.064 372.24 133.074 372.62H130.744C130.744 370.42 132.054 369.29 134.664 369.24C137.174 369.25 138.414 370.36 138.404 372.55V380.13H136.114V378.89H136.104ZM132.664 377.35C132.664 378.2 133.094 378.63 133.944 378.63C134.334 378.63 134.674 378.52 134.964 378.31C135.224 378.12 135.444 377.87 135.624 377.54C135.794 377.21 135.924 376.87 136.014 376.51C136.074 376.14 136.094 375.77 136.094 375.42C135.264 375.42 134.504 375.56 133.814 375.82C133.484 375.97 133.214 376.17 133.004 376.42C132.774 376.69 132.664 376.99 132.664 377.35Z" fill="#808184"/>
<path d="M144.195 380.04C141.985 379.41 140.845 377.52 140.795 374.34C140.785 372.91 141.165 371.71 141.945 370.74C142.715 369.77 143.945 369.27 145.625 369.24C146.425 369.24 147.095 369.34 147.625 369.55C148.125 369.76 148.525 370.05 148.835 370.43C149.005 370.61 149.135 370.8 149.235 370.99C149.335 371.22 149.415 371.45 149.485 371.69C149.585 372.16 149.635 372.65 149.635 373.14H147.085C147.085 372.6 146.985 372.11 146.795 371.67C146.565 371.23 146.115 371.01 145.445 370.99C144.765 371 144.245 371.28 143.895 371.82C143.535 372.37 143.355 373.07 143.355 373.9C143.355 374.43 143.435 374.97 143.605 375.52C143.775 376.07 144.015 376.59 144.345 377.06C144.695 377.51 145.145 377.88 145.685 378.16C146.235 378.47 146.905 378.63 147.705 378.63C148.395 378.63 148.985 378.54 149.475 378.36V379.88C148.555 380.19 147.545 380.36 146.435 380.38C146.085 380.38 145.755 380.35 145.435 380.3L145.145 381.58C145.235 381.57 145.335 381.56 145.455 381.56C145.665 381.56 145.885 381.58 146.135 381.63C146.385 381.69 146.625 381.8 146.845 381.97C147.085 382.12 147.265 382.32 147.395 382.59C147.535 382.86 147.595 383.19 147.595 383.59C147.595 384.23 147.385 384.76 146.965 385.18C146.555 385.62 145.905 385.85 145.025 385.87C144.595 385.86 144.245 385.79 143.975 385.67C143.705 385.57 143.495 385.48 143.345 385.4V383.99C143.575 384.13 143.815 384.26 144.065 384.37C144.295 384.49 144.575 384.56 144.895 384.58C145.265 384.56 145.515 384.44 145.665 384.22C145.825 384.02 145.905 383.81 145.905 383.59C145.885 383.1 145.705 382.77 145.355 382.61C144.985 382.45 144.605 382.38 144.225 382.39C144.035 382.39 143.855 382.42 143.665 382.48L144.195 380.04Z" fill="#808184"/>
<path d="M156.775 378.89H156.735C156.585 379.23 156.315 379.56 155.905 379.87C155.685 380.01 155.425 380.12 155.125 380.21C154.825 380.3 154.455 380.35 154.045 380.38C153.165 380.36 152.435 380.1 151.875 379.62C151.295 379.11 151.005 378.44 151.005 377.59C151.015 376.71 151.255 376.02 151.725 375.51C152.175 375.02 152.715 374.68 153.365 374.46C154.025 374.25 154.665 374.12 155.285 374.06C155.925 374 156.415 373.98 156.775 373.99V372.94C156.775 372.39 156.685 371.92 156.505 371.55C156.305 371.19 155.915 371 155.325 370.98C154.695 370.99 154.265 371.18 154.045 371.53C153.825 371.87 153.725 372.24 153.735 372.62H151.405C151.405 370.42 152.715 369.29 155.325 369.24C157.835 369.25 159.075 370.36 159.065 372.55V380.13H156.775V378.89V378.89ZM152.385 367.43C152.375 366.41 152.465 365.64 152.675 365.14C152.885 364.63 153.265 364.38 153.835 364.38C154.085 364.38 154.345 364.46 154.615 364.61C154.905 364.74 155.185 364.91 155.465 365.12C155.755 365.29 156.005 365.46 156.225 365.61C156.435 365.77 156.605 365.85 156.725 365.85C156.875 365.86 156.985 365.78 157.055 365.59C157.085 365.39 157.095 365.06 157.095 364.59H158.365C158.365 365.64 158.285 366.41 158.135 366.91C157.945 367.4 157.535 367.64 156.895 367.64C156.605 367.64 156.335 367.57 156.065 367.42C155.775 367.27 155.505 367.11 155.245 366.95C154.985 366.75 154.755 366.59 154.545 366.46C154.325 366.34 154.155 366.28 154.025 366.28C153.895 366.28 153.795 366.36 153.735 366.51C153.675 366.67 153.655 366.98 153.655 367.44H152.385V367.43ZM153.335 377.35C153.335 378.2 153.765 378.63 154.615 378.63C155.005 378.63 155.345 378.52 155.635 378.31C155.895 378.12 156.115 377.87 156.295 377.54C156.465 377.21 156.595 376.87 156.685 376.51C156.745 376.14 156.765 375.77 156.765 375.42C155.935 375.42 155.175 375.56 154.485 375.82C154.155 375.97 153.885 376.17 153.675 376.42C153.455 376.69 153.335 376.99 153.335 377.35Z" fill="#808184"/>
<path d="M166.205 380.38C163.185 380.31 161.665 378.46 161.655 374.81C161.665 371.16 163.185 369.3 166.205 369.24C169.225 369.3 170.745 371.15 170.755 374.81C170.745 378.45 169.225 380.31 166.205 380.38ZM164.205 374.81C164.205 375.3 164.235 375.77 164.285 376.22C164.325 376.66 164.415 377.07 164.545 377.44C164.695 377.8 164.905 378.08 165.185 378.29C165.445 378.52 165.785 378.63 166.205 378.63C166.635 378.63 166.995 378.52 167.265 378.29C167.525 378.08 167.725 377.8 167.855 377.44C167.995 377.07 168.095 376.66 168.155 376.22C168.185 375.77 168.195 375.3 168.195 374.81C168.205 373.76 168.095 372.87 167.855 372.13C167.725 371.77 167.525 371.49 167.265 371.28C166.985 371.09 166.635 370.99 166.205 370.99C165.785 370.99 165.445 371.09 165.185 371.28C164.905 371.49 164.695 371.77 164.545 372.13C164.305 372.87 164.195 373.77 164.205 374.81Z" fill="#808184"/>
<path d="M97.9644 277.11C99.5044 276.84 100.814 276.37 101.864 275.71C102.864 275.08 103.664 274.06 104.244 272.7C104.824 271.4 105.114 269.58 105.114 267.27C105.114 264.9 104.854 263 104.324 261.63C103.774 260.48 102.994 259.58 101.974 258.96C100.864 258.17 99.5844 257.66 98.0744 257.39C97.2544 257.25 96.4244 257.19 95.6344 257.19H88.5544V277.59H92.5044C94.4444 277.6 96.2744 277.43 97.9644 277.11Z" fill="#0A846C"/>
<path d="M104.884 292.46C101.944 290.55 97.7844 289.56 92.5444 289.56H88.5745V314.59H92.5444C94.6444 314.59 96.7445 314.41 98.8045 314.05C100.754 313.77 102.534 313.2 104.144 312.34C105.604 311.48 106.814 310.21 107.724 308.6C108.594 307.05 109.034 304.95 109.034 302.35C108.954 297.59 107.594 294.35 104.884 292.46Z" fill="#0A846C"/>
<path d="M196.984 197.31C163.184 234.72 51.3444 241.48 0.00439453 172.98C0.00439453 186.24 0.00439453 292.72 0.00439453 336.18H201.564C201.564 325.03 201.564 258.13 201.564 219.12C200.804 211.17 199.244 203.91 196.984 197.31ZM52.1044 321.85C46.8344 325.83 39.7244 327.84 30.9744 327.84H30.9444C25.9444 327.73 21.4044 327.21 17.4444 326.3C13.5144 325.37 10.8844 324.76 9.5544 324.46L8.5844 324.24V307.13L10.5044 308.36C12.8244 309.85 15.8044 311.44 19.3444 313.08C22.9044 314.86 26.9944 315.8 31.5144 315.87C36.1044 315.8 39.3544 314.71 41.1644 312.62C42.8144 310.65 43.6244 308.52 43.6244 306.12C43.5544 302.24 41.8844 299.13 38.4944 296.63C34.9444 293.92 30.7944 291.29 26.1444 288.8C21.3144 286.27 16.9944 283.22 13.3144 279.73C9.33439 276.14 7.26439 271.37 7.18439 265.56C7.25439 258.05 10.0544 252.47 15.4844 248.93C20.6144 245.61 27.0644 243.93 34.6644 243.93C39.0744 243.93 43.0544 244.22 46.4944 244.78C49.8244 245.3 52.2444 245.76 53.6944 246.14L54.6244 246.39V261.67L52.8644 260.87C50.3844 259.74 47.5544 258.63 44.4344 257.57C41.3944 256.54 37.9544 255.98 34.2044 255.91C31.1944 255.91 28.7144 256.6 26.8444 257.96C24.8844 259.28 23.9444 261.37 23.9444 264.38C23.9444 265.8 24.3944 267.04 25.3344 268.16C26.3344 269.59 27.6044 270.88 29.1944 272.1C32.7244 274.48 36.9044 276.95 41.5644 279.41C46.3844 281.99 50.6844 285.18 54.3544 288.9C58.2444 292.84 60.2744 297.97 60.3944 304.15C60.2744 311.89 57.4844 317.83 52.1044 321.85ZM122.214 315.52C120.554 318.7 118.284 321.09 115.484 322.62C112.874 324.12 109.974 325.18 106.894 325.76C103.784 326.29 100.784 326.56 97.9444 326.56H73.1444V245.22H97.8744C100.034 245.22 102.444 245.41 105.014 245.79C107.654 246.18 110.184 247.13 112.554 248.58C114.894 249.89 116.904 251.94 118.484 254.65C119.994 257.34 120.764 260.81 120.764 264.99C120.764 268.25 120.314 271.05 119.434 273.31C118.504 275.6 117.264 277.5 115.744 278.99C113.974 280.6 112.254 281.87 110.594 282.81C111.284 282.99 111.984 283.21 112.684 283.46C114.784 284.27 116.714 285.5 118.454 287.13C120.254 288.66 121.784 290.81 122.984 293.5C124.104 296.08 124.674 299.43 124.674 303.49C124.604 308.49 123.774 312.53 122.214 315.52ZM192.364 269.32H175.484V268.07C175.484 266.51 175.414 264.93 175.274 263.38C175.034 262.06 174.524 260.74 173.794 259.58C173.144 258.41 172.224 257.53 170.944 256.82C169.654 256.24 167.774 255.92 165.444 255.92C162.474 255.99 160.034 256.82 158.214 258.41C156.284 260.03 154.804 262.19 153.804 264.84C152.724 267.64 151.974 270.67 151.554 273.84C151.094 277.12 150.864 280.37 150.864 283.51C150.794 292.8 152.304 300.46 155.374 306.28C158.284 312.01 163.214 314.82 170.444 314.89C174.634 314.82 178.294 314.02 181.274 312.51C184.414 311.07 186.524 309.99 187.574 309.29L189.514 308V322.91L188.744 323.23C187.814 323.61 186.684 324.03 185.374 324.48C183.924 325.1 182.214 325.66 180.344 326.12C176.634 327.17 172.284 327.76 167.484 327.88H167.464H167.444C156.074 327.77 147.584 323.77 142.214 316.02C136.834 308.45 134.104 298.2 134.104 285.57C134.024 273.52 136.444 263.57 141.274 255.99C146.134 248.21 154.264 244.17 165.444 243.97C174.654 244.09 181.524 246.49 185.884 251.12C190.204 255.78 192.384 261.49 192.384 268.11V269.32H192.364Z" fill="#0A846C"/>
<path d="M46.6344 48H0.00444444C0.00444444 48 -0.00555556 91.79 0.00444444 114.08C3.00444 70.44 46.6344 48 46.6344 48Z" fill="#F5C414"/>
<path d="M224.844 131.51C221.574 136.25 215.554 142.4 207.184 148.51C209.634 151.8 211.604 155.15 213.144 158.51C221.854 145.01 225.204 133.5 224.844 131.51Z" fill="#1479BE"/>
<path d="M67.5544 170.61C55.8744 163.82 48.5944 158.32 42.2844 151.14C39.1744 152.65 31.4944 156.94 28.0944 157.97C30.4744 155 35.9744 149.63 39.0044 147.37C6.99443 109.6 41.4944 70.52 58.1944 55.75C14.1144 73.9 -30.8456 163.7 50.6244 203.56C113.824 227.73 162.324 216.64 187.984 192.88C184.944 186.15 181.134 180.18 176.694 174.92C148.444 187.53 113.954 191.02 67.5544 170.61Z" fill="#1479BE"/>
<path d="M3.52273 39V9.90909H13.3523C15.625 9.90909 17.4905 10.2973 18.9489 11.0739C20.4072 11.8409 21.4867 12.8968 22.1875 14.2415C22.8883 15.5862 23.2386 17.1155 23.2386 18.8295C23.2386 20.5436 22.8883 22.0634 22.1875 23.3892C21.4867 24.715 20.4119 25.7566 18.9631 26.5142C17.5142 27.2623 15.6629 27.6364 13.4091 27.6364H5.45455V24.4545H13.2955C14.8485 24.4545 16.0985 24.2273 17.0455 23.7727C18.0019 23.3182 18.6932 22.6742 19.1193 21.8409C19.5549 20.9981 19.7727 19.9943 19.7727 18.8295C19.7727 17.6648 19.5549 16.6468 19.1193 15.7756C18.6837 14.9044 17.9877 14.232 17.0312 13.7585C16.0748 13.2756 14.8106 13.0341 13.2386 13.0341H7.04545V39H3.52273ZM17.2159 25.9318L24.375 39H20.2841L13.2386 25.9318H17.2159ZM37.5675 39.4545C35.4652 39.4545 33.6518 38.9905 32.1271 38.0625C30.612 37.125 29.4425 35.8182 28.6186 34.142C27.8042 32.4564 27.397 30.4962 27.397 28.2614C27.397 26.0265 27.8042 24.0568 28.6186 22.3523C29.4425 20.6383 30.5883 19.303 32.0561 18.3466C33.5334 17.3807 35.2569 16.8977 37.2266 16.8977C38.3629 16.8977 39.4851 17.0871 40.593 17.4659C41.701 17.8447 42.7095 18.4602 43.6186 19.3125C44.5277 20.1553 45.2521 21.2727 45.7919 22.6648C46.3317 24.0568 46.6016 25.7708 46.6016 27.8068V29.2273H29.7834V26.3295H43.1925C43.1925 25.0985 42.9463 24 42.4538 23.0341C41.9709 22.0682 41.2796 21.3059 40.38 20.7472C39.4898 20.1884 38.4387 19.9091 37.2266 19.9091C35.8913 19.9091 34.736 20.2405 33.7607 20.9034C32.7947 21.5568 32.0514 22.4091 31.5305 23.4602C31.0097 24.5114 30.7493 25.6383 30.7493 26.8409V28.7727C30.7493 30.4205 31.0334 31.8172 31.6016 32.9631C32.1792 34.0994 32.9794 34.9659 34.0021 35.5625C35.0249 36.1496 36.2133 36.4432 37.5675 36.4432C38.4482 36.4432 39.2436 36.3201 39.9538 36.0739C40.6735 35.8182 41.2938 35.4394 41.8146 34.9375C42.3355 34.4261 42.7379 33.7917 43.022 33.0341L46.2607 33.9432C45.9197 35.0417 45.3468 36.0076 44.5419 36.8409C43.737 37.6648 42.7427 38.3087 41.5589 38.7727C40.3752 39.2273 39.0447 39.4545 37.5675 39.4545ZM58.1214 39.5114C56.7389 39.5114 55.4841 39.2509 54.3572 38.7301C53.2304 38.1998 52.3355 37.4375 51.6726 36.4432C51.0097 35.4394 50.6783 34.2273 50.6783 32.8068C50.6783 31.5568 50.9245 30.5436 51.4169 29.767C51.9093 28.9811 52.5675 28.3655 53.3913 27.9205C54.2152 27.4754 55.1243 27.1439 56.1186 26.9261C57.1224 26.6989 58.1309 26.5189 59.1442 26.3864C60.4699 26.2159 61.5447 26.0881 62.3686 26.0028C63.2019 25.9081 63.808 25.7519 64.1868 25.5341C64.575 25.3163 64.7692 24.9375 64.7692 24.3977V24.2841C64.7692 22.8826 64.3857 21.7936 63.6186 21.017C62.861 20.2405 61.7105 19.8523 60.1669 19.8523C58.5665 19.8523 57.3118 20.2027 56.4027 20.9034C55.4936 21.6042 54.8544 22.3523 54.4851 23.1477L51.3033 22.0114C51.8714 20.6856 52.629 19.6534 53.576 18.9148C54.5324 18.1667 55.5741 17.6458 56.701 17.3523C57.8374 17.0492 58.9548 16.8977 60.0533 16.8977C60.754 16.8977 61.5589 16.983 62.468 17.1534C63.3866 17.3144 64.272 17.6506 65.1243 18.1619C65.986 18.6733 66.701 19.4451 67.2692 20.4773C67.8374 21.5095 68.1214 22.892 68.1214 24.625V39H64.7692V36.0455H64.5987C64.3714 36.5189 63.9927 37.0256 63.4624 37.5653C62.9321 38.1051 62.2266 38.5644 61.3459 38.9432C60.4652 39.322 59.3904 39.5114 58.1214 39.5114ZM58.6328 36.5C59.9586 36.5 61.076 36.2396 61.9851 35.7188C62.9036 35.1979 63.5949 34.5256 64.0589 33.7017C64.5324 32.8778 64.7692 32.0114 64.7692 31.1023V28.0341C64.6271 28.2045 64.3146 28.3608 63.8317 28.5028C63.3582 28.6354 62.8089 28.7538 62.1839 28.858C61.5684 28.9527 60.9671 29.0379 60.38 29.1136C59.8023 29.1799 59.3336 29.2367 58.9737 29.2841C58.1025 29.3977 57.2881 29.5824 56.5305 29.8381C55.7824 30.0843 55.1764 30.4583 54.7124 30.9602C54.2578 31.4527 54.0305 32.125 54.0305 32.9773C54.0305 34.142 54.4614 35.0227 55.3232 35.6193C56.1944 36.2064 57.2976 36.5 58.6328 36.5ZM77.5923 9.90909V39H74.2401V9.90909H77.5923ZM83.7322 39V17.1818H87.0845V39H83.7322ZM85.4368 13.5455C84.7834 13.5455 84.2199 13.3229 83.7464 12.8778C83.2824 12.4328 83.0504 11.8977 83.0504 11.2727C83.0504 10.6477 83.2824 10.1127 83.7464 9.66761C84.2199 9.22254 84.7834 9 85.4368 9C86.0902 9 86.6489 9.22254 87.1129 9.66761C87.5864 10.1127 87.8232 10.6477 87.8232 11.2727C87.8232 11.8977 87.5864 12.4328 87.1129 12.8778C86.6489 13.3229 86.0902 13.5455 85.4368 13.5455ZM92.5994 39V36.4432L104.986 20.5341V20.3068H92.9972V17.1818H109.304V19.8523L97.2585 35.6477V35.875H109.702V39H92.5994ZM121.286 39.5114C119.903 39.5114 118.648 39.2509 117.521 38.7301C116.394 38.1998 115.5 37.4375 114.837 36.4432C114.174 35.4394 113.842 34.2273 113.842 32.8068C113.842 31.5568 114.089 30.5436 114.581 29.767C115.073 28.9811 115.732 28.3655 116.555 27.9205C117.379 27.4754 118.288 27.1439 119.283 26.9261C120.286 26.6989 121.295 26.5189 122.308 26.3864C123.634 26.2159 124.709 26.0881 125.533 26.0028C126.366 25.9081 126.972 25.7519 127.351 25.5341C127.739 25.3163 127.933 24.9375 127.933 24.3977V24.2841C127.933 22.8826 127.55 21.7936 126.783 21.017C126.025 20.2405 124.875 19.8523 123.331 19.8523C121.731 19.8523 120.476 20.2027 119.567 20.9034C118.658 21.6042 118.018 22.3523 117.649 23.1477L114.467 22.0114C115.036 20.6856 115.793 19.6534 116.74 18.9148C117.696 18.1667 118.738 17.6458 119.865 17.3523C121.001 17.0492 122.119 16.8977 123.217 16.8977C123.918 16.8977 124.723 16.983 125.632 17.1534C126.551 17.3144 127.436 17.6506 128.288 18.1619C129.15 18.6733 129.865 19.4451 130.433 20.4773C131.001 21.5095 131.286 22.892 131.286 24.625V39H127.933V36.0455H127.763C127.536 36.5189 127.157 37.0256 126.626 37.5653C126.096 38.1051 125.391 38.5644 124.51 38.9432C123.629 39.322 122.554 39.5114 121.286 39.5114ZM121.797 36.5C123.123 36.5 124.24 36.2396 125.149 35.7188C126.068 35.1979 126.759 34.5256 127.223 33.7017C127.696 32.8778 127.933 32.0114 127.933 31.1023V28.0341C127.791 28.2045 127.479 28.3608 126.996 28.5028C126.522 28.6354 125.973 28.7538 125.348 28.858C124.732 28.9527 124.131 29.0379 123.544 29.1136C122.966 29.1799 122.498 29.2367 122.138 29.2841C121.267 29.3977 120.452 29.5824 119.695 29.8381C118.946 30.0843 118.34 30.4583 117.876 30.9602C117.422 31.4527 117.195 32.125 117.195 32.9773C117.195 34.142 117.625 35.0227 118.487 35.6193C119.358 36.2064 120.462 36.5 121.797 36.5ZM146.268 39.4545C144.222 39.4545 142.461 38.9716 140.984 38.0057C139.506 37.0398 138.37 35.7093 137.575 34.0142C136.779 32.3191 136.381 30.3826 136.381 28.2045C136.381 25.9886 136.789 24.0331 137.603 22.3381C138.427 20.6335 139.573 19.303 141.04 18.3466C142.518 17.3807 144.241 16.8977 146.211 16.8977C147.745 16.8977 149.128 17.1818 150.359 17.75C151.59 18.3182 152.598 19.1136 153.384 20.1364C154.17 21.1591 154.658 22.3523 154.847 23.7159H151.495C151.239 22.7216 150.671 21.8409 149.79 21.0739C148.919 20.2973 147.745 19.9091 146.268 19.9091C144.961 19.9091 143.815 20.25 142.83 20.9318C141.855 21.6042 141.093 22.5559 140.543 23.7869C140.004 25.0085 139.734 26.4432 139.734 28.0909C139.734 29.7765 139.999 31.2443 140.529 32.4943C141.069 33.7443 141.826 34.715 142.802 35.4062C143.787 36.0975 144.942 36.4432 146.268 36.4432C147.139 36.4432 147.93 36.2917 148.64 35.9886C149.35 35.6856 149.951 35.25 150.444 34.6818C150.936 34.1136 151.287 33.4318 151.495 32.6364H154.847C154.658 33.9242 154.189 35.0843 153.441 36.1165C152.702 37.1392 151.722 37.9536 150.501 38.5597C149.289 39.1562 147.878 39.4545 146.268 39.4545ZM144.677 38.8864H147.461L147.234 40.0227C147.972 40.1364 148.649 40.4441 149.265 40.946C149.88 41.4574 150.188 42.267 150.188 43.375C150.188 44.5966 149.682 45.5909 148.668 46.358C147.665 47.1345 146.183 47.5227 144.222 47.5227L144.109 45.3068C144.989 45.3068 145.719 45.1648 146.296 44.8807C146.883 44.6061 147.177 44.142 147.177 43.4886C147.177 42.8352 146.935 42.3902 146.452 42.1534C145.969 41.9167 145.188 41.7557 144.109 41.6705L144.677 38.8864ZM166.168 39.5114C164.786 39.5114 163.531 39.2509 162.404 38.7301C161.277 38.1998 160.382 37.4375 159.719 36.4432C159.057 35.4394 158.725 34.2273 158.725 32.8068C158.725 31.5568 158.971 30.5436 159.464 29.767C159.956 28.9811 160.614 28.3655 161.438 27.9205C162.262 27.4754 163.171 27.1439 164.165 26.9261C165.169 26.6989 166.178 26.5189 167.191 26.3864C168.517 26.2159 169.592 26.0881 170.415 26.0028C171.249 25.9081 171.855 25.7519 172.234 25.5341C172.622 25.3163 172.816 24.9375 172.816 24.3977V24.2841C172.816 22.8826 172.433 21.7936 171.665 21.017C170.908 20.2405 169.757 19.8523 168.214 19.8523C166.613 19.8523 165.359 20.2027 164.45 20.9034C163.54 21.6042 162.901 22.3523 162.532 23.1477L159.35 22.0114C159.918 20.6856 160.676 19.6534 161.623 18.9148C162.579 18.1667 163.621 17.6458 164.748 17.3523C165.884 17.0492 167.002 16.8977 168.1 16.8977C168.801 16.8977 169.606 16.983 170.515 17.1534C171.433 17.3144 172.319 17.6506 173.171 18.1619C174.033 18.6733 174.748 19.4451 175.316 20.4773C175.884 21.5095 176.168 22.892 176.168 24.625V39H172.816V36.0455H172.646C172.418 36.5189 172.04 37.0256 171.509 37.5653C170.979 38.1051 170.273 38.5644 169.393 38.9432C168.512 39.322 167.437 39.5114 166.168 39.5114ZM166.68 36.5C168.005 36.5 169.123 36.2396 170.032 35.7188C170.951 35.1979 171.642 34.5256 172.106 33.7017C172.579 32.8778 172.816 32.0114 172.816 31.1023V28.0341C172.674 28.2045 172.362 28.3608 171.879 28.5028C171.405 28.6354 170.856 28.7538 170.231 28.858C169.615 28.9527 169.014 29.0379 168.427 29.1136C167.849 29.1799 167.38 29.2367 167.021 29.2841C166.149 29.3977 165.335 29.5824 164.577 29.8381C163.829 30.0843 163.223 30.4583 162.759 30.9602C162.305 31.4527 162.077 32.125 162.077 32.9773C162.077 34.142 162.508 35.0227 163.37 35.6193C164.241 36.2064 165.344 36.5 166.68 36.5ZM163.952 14.5682L161.339 14.4545C161.339 13.0057 161.751 11.822 162.575 10.9034C163.408 9.97538 164.435 9.51136 165.657 9.51136C166.197 9.51136 166.675 9.60606 167.092 9.79545C167.508 9.97538 167.906 10.1837 168.285 10.4205C168.664 10.6572 169.052 10.8703 169.45 11.0597C169.857 11.2396 170.316 11.3295 170.827 11.3295C171.367 11.3295 171.822 11.1212 172.191 10.7045C172.57 10.2784 172.759 9.76704 172.759 9.17045L175.316 9.39773C175.316 10.875 174.899 12.0492 174.066 12.9205C173.242 13.7917 172.219 14.2273 170.998 14.2273C170.344 14.2273 169.805 14.1373 169.379 13.9574C168.952 13.768 168.574 13.5549 168.242 13.3182C167.911 13.0814 167.56 12.8731 167.191 12.6932C166.822 12.5038 166.367 12.4091 165.827 12.4091C165.288 12.4091 164.838 12.6222 164.478 13.0483C164.128 13.465 163.952 13.9716 163.952 14.5682ZM191.151 39.4545C189.181 39.4545 187.453 38.9858 185.966 38.0483C184.489 37.1108 183.333 35.7992 182.5 34.1136C181.676 32.428 181.264 30.4583 181.264 28.2045C181.264 25.9318 181.676 23.9479 182.5 22.2528C183.333 20.5578 184.489 19.2415 185.966 18.304C187.453 17.3665 189.181 16.8977 191.151 16.8977C193.12 16.8977 194.844 17.3665 196.321 18.304C197.808 19.2415 198.963 20.5578 199.787 22.2528C200.62 23.9479 201.037 25.9318 201.037 28.2045C201.037 30.4583 200.62 32.428 199.787 34.1136C198.963 35.7992 197.808 37.1108 196.321 38.0483C194.844 38.9858 193.12 39.4545 191.151 39.4545ZM191.151 36.4432C192.647 36.4432 193.878 36.0597 194.844 35.2926C195.81 34.5256 196.525 33.517 196.989 32.267C197.453 31.017 197.685 29.6629 197.685 28.2045C197.685 26.7462 197.453 25.3873 196.989 24.1278C196.525 22.8684 195.81 21.8504 194.844 21.0739C193.878 20.2973 192.647 19.9091 191.151 19.9091C189.654 19.9091 188.423 20.2973 187.457 21.0739C186.491 21.8504 185.777 22.8684 185.312 24.1278C184.848 25.3873 184.616 26.7462 184.616 28.2045C184.616 29.6629 184.848 31.017 185.312 32.267C185.777 33.517 186.491 34.5256 187.457 35.2926C188.423 36.0597 189.654 36.4432 191.151 36.4432ZM208.597 39.2273C207.897 39.2273 207.295 38.9763 206.793 38.4744C206.291 37.9725 206.04 37.3712 206.04 36.6705C206.04 35.9697 206.291 35.3684 206.793 34.8665C207.295 34.3646 207.897 34.1136 208.597 34.1136C209.298 34.1136 209.899 34.3646 210.401 34.8665C210.903 35.3684 211.154 35.9697 211.154 36.6705C211.154 37.1345 211.036 37.5606 210.799 37.9489C210.572 38.3371 210.264 38.6496 209.876 38.8864C209.497 39.1136 209.071 39.2273 208.597 39.2273ZM208.597 23.0341C207.897 23.0341 207.295 22.7831 206.793 22.2812C206.291 21.7794 206.04 21.178 206.04 20.4773C206.04 19.7765 206.291 19.1752 206.793 18.6733C207.295 18.1714 207.897 17.9205 208.597 17.9205C209.298 17.9205 209.899 18.1714 210.401 18.6733C210.903 19.1752 211.154 19.7765 211.154 20.4773C211.154 20.9413 211.036 21.3674 210.799 21.7557C210.572 22.1439 210.264 22.4564 209.876 22.6932C209.497 22.9205 209.071 23.0341 208.597 23.0341Z" fill="white"/>
</svg>
